<svg xmlns="http://www.w3.org/2000/svg" viewBox="0 0 24 24" width="24" height="24">
  <path fill="currentColor" d="M12.25 2c-5.42 0-9.75 4.33-9.75 9.75s4.33 9.75 9.75 9.75 9.75-4.33 9.75-9.75S17.67 2 12.25 2zm0 2c4.28 0 7.75 3.47 7.75 7.75s-3.47 7.75-7.75 7.75-7.75-3.47-7.75-7.75S7.97 4 12.25 4z"/>
  <path fill="currentColor" d="M14.5 8.5h-4.25c-.83 0-1.5.67-1.5 1.5v.5h2v-.5h3.75v1H12c-.83 0-1.5.67-1.5 1.5v2c0 .83.67 1.5 1.5 1.5h4.25c.83 0 1.5-.67 1.5-1.5v-.5h-2v.5h-3.75v-1H14.5c.83 0 1.5-.67 1.5-1.5v-2c0-.83-.67-1.5-1.5-1.5z"/>
</svg>